<svg width="107" height="32" viewBox="0 0 107 32" fill="none" xmlns="http://www.w3.org/2000/svg">
<rect x="72.6846" width="33.3615" height="31.5425" rx="9.9069" fill="#323142"/>
<line x1="89.6605" y1="11.0059" x2="89.6605" y2="20.8112" stroke="white" stroke-width="1.64857" stroke-linecap="round"/>
<line x1="84.2769" y1="15.7206" x2="94.7427" y2="15.7206" stroke="white" stroke-width="1.64857" stroke-linecap="round"/>
<rect x="0.627019" y="0.627019" width="32.1074" height="30.2885" rx="9.27988" stroke="#323142" stroke-width="1.25404"/>
<line x1="11.5926" y1="15.7206" x2="22.0584" y2="15.7206" stroke="#323142" stroke-width="1.64857" stroke-linecap="round"/>
<path d="M41.4714 15.0562C41.4714 13.0398 41.7996 11.4689 42.4561 10.3435C43.1126 9.20633 44.2615 8.63775 45.9027 8.63775C47.5322 8.63775 48.6752 9.20633 49.3317 10.3435C49.9882 11.4689 50.3165 13.0398 50.3165 15.0562C50.3165 17.1077 49.9882 18.7021 49.3317 19.8392C48.6752 20.9763 47.5322 21.5449 45.9027 21.5449C44.2615 21.5449 43.1126 20.9763 42.4561 19.8392C41.7996 18.7021 41.4714 17.1077 41.4714 15.0562ZM48.7338 15.0562C48.7338 14.0363 48.6635 13.1746 48.5228 12.4712C48.3939 11.7561 48.1184 11.1817 47.6963 10.7479C47.286 10.3142 46.6881 10.0973 45.9027 10.0973C45.1055 10.0973 44.4959 10.3142 44.0739 10.7479C43.6636 11.1817 43.3881 11.7561 43.2474 12.4712C43.1185 13.1746 43.054 14.0363 43.054 15.0562C43.054 16.1113 43.1185 16.9963 43.2474 17.7115C43.3881 18.4266 43.6636 19.001 44.0739 19.4348C44.4959 19.8685 45.1055 20.0854 45.9027 20.0854C46.6881 20.0854 47.286 19.8685 47.6963 19.4348C48.1184 19.001 48.3939 18.4266 48.5228 17.7115C48.6635 16.9963 48.7338 16.1113 48.7338 15.0562ZM52.0913 10.2907V8.83118H55.3972V21.5449H53.7794V10.2907H52.0913Z" fill="#323142"/>
</svg>
