<svg width="107" height="32" viewBox="0 0 107 32" fill="none" xmlns="http://www.w3.org/2000/svg">
<rect x="72.6846" width="33.3615" height="31.5425" rx="9.9069" fill="#323142"/>
<line x1="89.6605" y1="11.0059" x2="89.6605" y2="20.8112" stroke="white" stroke-width="1.64857" stroke-linecap="round"/>
<line x1="84.2769" y1="15.7206" x2="94.7427" y2="15.7206" stroke="white" stroke-width="1.64857" stroke-linecap="round"/>
<rect x="0.627019" y="0.627019" width="32.1074" height="30.2885" rx="9.27988" stroke="#323142" stroke-width="1.25404"/>
<line x1="11.5926" y1="15.7206" x2="22.0584" y2="15.7206" stroke="#323142" stroke-width="1.64857" stroke-linecap="round"/>
<path d="M41.4714 15.0562C41.4714 13.0398 41.7996 11.4689 42.4561 10.3435C43.1126 9.20633 44.2615 8.63775 45.9027 8.63775C47.5322 8.63775 48.6752 9.20633 49.3317 10.3435C49.9882 11.4689 50.3165 13.0398 50.3165 15.0562C50.3165 17.1077 49.9882 18.7021 49.3317 19.8392C48.6752 20.9763 47.5322 21.5449 45.9027 21.5449C44.2615 21.5449 43.1126 20.9763 42.4561 19.8392C41.7996 18.7021 41.4714 17.1077 41.4714 15.0562ZM48.7338 15.0562C48.7338 14.0363 48.6635 13.1746 48.5228 12.4712C48.3939 11.7561 48.1184 11.1817 47.6963 10.7479C47.286 10.3142 46.6881 10.0973 45.9027 10.0973C45.1055 10.0973 44.4959 10.3142 44.0739 10.7479C43.6636 11.1817 43.3881 11.7561 43.2474 12.4712C43.1185 13.1746 43.054 14.0363 43.054 15.0562C43.054 16.1113 43.1185 16.9963 43.2474 17.7115C43.3881 18.4266 43.6636 19.001 44.0739 19.4348C44.4959 19.8685 45.1055 20.0854 45.9027 20.0854C46.6881 20.0854 47.286 19.8685 47.6963 19.4348C48.1184 19.001 48.3939 18.4266 48.5228 17.7115C48.6635 16.9963 48.7338 16.1113 48.7338 15.0562ZM52.4781 12.0316C52.5602 10.9531 52.9764 10.109 53.7267 9.4994C54.4769 8.8898 55.45 8.585 56.6457 8.585C57.4429 8.585 58.1287 8.73154 58.7031 9.02462C59.2893 9.30597 59.7289 9.69284 60.022 10.1852C60.3268 10.6776 60.4792 11.2344 60.4792 11.8558C60.4792 12.5826 60.2682 13.2098 59.8461 13.7373C59.4358 14.2649 58.8966 14.6048 58.2283 14.7572V14.8452C58.9903 15.0327 59.5941 15.402 60.0396 15.953C60.485 16.504 60.7078 17.2249 60.7078 18.1159C60.7078 18.7841 60.5554 19.3879 60.2506 19.9271C59.9458 20.4547 59.4886 20.8708 58.879 21.1756C58.2694 21.4804 57.5367 21.6328 56.6809 21.6328C55.4382 21.6328 54.4183 21.3105 53.6211 20.6657C52.824 20.0092 52.3785 19.0831 52.2847 17.8873H53.8322C53.9142 18.5907 54.2014 19.1651 54.6938 19.6106C55.1862 20.0561 55.8427 20.2788 56.6633 20.2788C57.4839 20.2788 58.1052 20.0678 58.5273 19.6458C58.961 19.212 59.1779 18.6552 59.1779 17.9752C59.1779 17.096 58.8848 16.4629 58.2987 16.0761C57.7125 15.6892 56.8274 15.4958 55.6434 15.4958H55.2389V14.1593H55.661C56.7395 14.1476 57.5543 13.9718 58.1052 13.6318C58.6562 13.2801 58.9317 12.7408 58.9317 12.014C58.9317 11.3927 58.7266 10.8945 58.3163 10.5193C57.9177 10.1442 57.3432 9.95661 56.593 9.95661C55.8661 9.95661 55.28 10.1442 54.8345 10.5193C54.389 10.8945 54.1252 11.3986 54.0432 12.0316H52.4781Z" fill="#323142"/>
</svg>
